# xmcd
#
# Track frame offsets: 
#        150
#        20816
#        45684
#        59194
#        81222
#        100551
#        111169
#        127245
#        141602
#
# Disc length: 2121 seconds
#
# Revision: 1
# Processed by: cddbd v1.5.2PL0 Copyright (c) Steve Scherf et al.
# Submitted via: ExactAudioCopy v1.0b3
#
DISCID=8a084709
DTITLE=Vargas Blues Band - Mojo Proteccion
DYEAR=2009
DGENRE=Blues
TTITLE0=Ride With My Blues
TTITLE1=Mojo Proteccion
TTITLE2=Suffering Scream
TTITLE3=Childrens And Guns
TTITLE4=Too Many Lies
TTITLE5=Reasons To Cry
TTITLE6=I Am Amazed
TTITLE7=Love On The Run
TTITLE8=Time Will Come
EXTD=
EXTT0=
EXTT1=
EXTT2=
EXTT3=
EXTT4=
EXTT5=
EXTT6=
EXTT7=
EXTT8=
PLAYORDER=
